<?xml version="1.0" encoding="UTF-8" standalone="no"?>
<svg
   xmlns:dc="http://purl.org/dc/elements/1.1/"
   xmlns:cc="http://creativecommons.org/ns#"
   xmlns:rdf="http://www.w3.org/1999/02/22-rdf-syntax-ns#"
   xmlns:svg="http://www.w3.org/2000/svg"
   xmlns="http://www.w3.org/2000/svg"
   xmlns:sodipodi="http://sodipodi.sourceforge.net/DTD/sodipodi-0.dtd"
   xmlns:inkscape="http://www.inkscape.org/namespaces/inkscape"
   width="210mm"
   height="297mm"
   viewBox="0 0 210 297"
   version="1.1"
   id="svg8"
   inkscape:version="1.0.2 (e86c870879, 2021-01-15)"
   sodipodi:docname="heart-red.svg">
  <defs
     id="defs2" />
  <sodipodi:namedview
     id="base"
     pagecolor="#ffffff"
     bordercolor="#666666"
     borderopacity="1.0"
     inkscape:pageopacity="0.0"
     inkscape:pageshadow="2"
     inkscape:zoom="0.35"
     inkscape:cx="-178.57143"
     inkscape:cy="690.20472"
     inkscape:document-units="mm"
     inkscape:current-layer="layer1"
     inkscape:document-rotation="0"
     showgrid="false"
     inkscape:window-width="1365"
     inkscape:window-height="992"
     inkscape:window-x="410"
     inkscape:window-y="31"
     inkscape:window-maximized="0" />
  <metadata
     id="metadata5">
    <rdf:RDF>
      <cc:Work
         rdf:about="">
        <dc:format>image/svg+xml</dc:format>
        <dc:type
           rdf:resource="http://purl.org/dc/dcmitype/StillImage" />
        <dc:title></dc:title>
      </cc:Work>
    </rdf:RDF>
  </metadata>
  <g
     inkscape:label="Calque 1"
     inkscape:groupmode="layer"
     id="layer1">
    <path
       d="m 79.97976,73.34504 2.936875,3.175 3.175,-3.169708 c 8.863542,-8.638646 21.140205,-12.570354 33.205215,-10.562167 18.22979,3.037417 31.59125,18.811875 31.59125,37.306255 v 1.53458 c 0,10.98021 -4.55084,21.48417 -12.59417,28.97187 l -47.810211,44.63521 c -1.984375,1.85208 -4.60375,2.88396 -7.328959,2.88396 -2.725208,0 -5.344583,-1.03188 -7.328958,-2.88396 L 28.012948,130.60087 C 19.980198,123.11317 15.421427,112.60921 15.421427,101.629 v -1.53458 c 0,-18.49438 13.36675,-34.268838 31.59125,-37.306255 11.826875,-2.008187 24.341667,1.923521 32.967083,10.556875 -0.238125,0 0,0.0026 0,0 z m 2.936875,21.140208 -11.90625,-12.3825 C 65.268927,76.594123 57.11976,73.98004 49.102885,75.31354 36.998198,77.332311 28.121427,87.817748 28.121427,100.09442 v 1.53458 c 0,7.46125 3.098271,14.605 8.556625,19.685 L 83.15476,164.70566 129.64205,121.314 c 5.45042,-5.08 8.54605,-12.22375 8.54605,-19.685 v -1.53458 c 0,-12.276672 -8.89,-22.762109 -20.98146,-24.78088 -8.01688,-1.3335 -16.16605,1.280583 -21.907505,6.789208 z"
       id="path862"
       style="stroke-width:0.264583;fill:#901c1c;stroke:#901c1c;fill-opacity:1;stroke-opacity:1" />
  </g>
</svg>
