<?xml version="1.0" encoding="UTF-8" standalone="no"?>
<svg
   xmlns:dc="http://purl.org/dc/elements/1.1/"
   xmlns:cc="http://creativecommons.org/ns#"
   xmlns:rdf="http://www.w3.org/1999/02/22-rdf-syntax-ns#"
   xmlns:svg="http://www.w3.org/2000/svg"
   xmlns="http://www.w3.org/2000/svg"
   xmlns:sodipodi="http://sodipodi.sourceforge.net/DTD/sodipodi-0.dtd"
   xmlns:inkscape="http://www.inkscape.org/namespaces/inkscape"
   width="210mm"
   height="297mm"
   viewBox="0 0 210 297"
   version="1.1"
   id="svg8"
   inkscape:version="1.0.2 (e86c870879, 2021-01-15)"
   sodipodi:docname="heart-solid-red.svg">
  <defs
     id="defs2" />
  <sodipodi:namedview
     id="base"
     pagecolor="#ffffff"
     bordercolor="#666666"
     borderopacity="1.0"
     inkscape:pageopacity="0.0"
     inkscape:pageshadow="2"
     inkscape:zoom="0.35"
     inkscape:cx="-178.57143"
     inkscape:cy="690.20472"
     inkscape:document-units="mm"
     inkscape:current-layer="layer1"
     inkscape:document-rotation="0"
     showgrid="false"
     inkscape:window-width="1365"
     inkscape:window-height="992"
     inkscape:window-x="410"
     inkscape:window-y="31"
     inkscape:window-maximized="0" />
  <metadata
     id="metadata5">
    <rdf:RDF>
      <cc:Work
         rdf:about="">
        <dc:format>image/svg+xml</dc:format>
        <dc:type
           rdf:resource="http://purl.org/dc/dcmitype/StillImage" />
        <dc:title></dc:title>
      </cc:Work>
    </rdf:RDF>
  </metadata>
  <g
     inkscape:label="Calque 1"
     inkscape:groupmode="layer"
     id="layer1">
    <path
       d="m 5.594046,140.93851 v -1.53458 c 0,-18.49438 13.36675,-34.26884 31.59125,-37.30625 11.826875,-2.00819 24.341667,1.92352 32.967083,10.56216 l 3.175,3.16971 2.936875,-3.16971 c 8.863542,-8.63864 21.140209,-12.57035 33.205216,-10.56216 18.22979,3.03741 31.59125,18.81187 31.59125,37.30625 v 1.53458 c 0,10.98021 -4.55084,21.48417 -12.59417,28.97187 l -47.810212,44.63521 c -1.984375,1.85208 -4.60375,2.88396 -7.328959,2.88396 -2.725208,0 -5.344583,-1.03188 -7.328958,-2.88396 L 18.185567,169.91038 C 10.152817,162.42268 5.5941253,151.91872 5.5941253,140.93851 Z"
       id="path891"
       style="stroke-width:0.264583;stroke:#901c1c;fill:#901c1c;stroke-opacity:1;fill-opacity:1" />
  </g>
</svg>
